<?xml version="1.0" encoding="UTF-8" standalone="no"?>
<svg width="100px" height="100px" viewBox="0 0 100 100" version="1.1" xmlns="http://www.w3.org/2000/svg" xmlns:xlink="http://www.w3.org/1999/xlink" xmlns:sketch="http://www.bohemiancoding.com/sketch/ns">
    <!-- Generator: Sketch 3.2 (9961) - http://www.bohemiancoding.com/sketch -->
    <title>burger 2</title>
    <desc>Created with Sketch.</desc>
    <defs></defs>
    <g id="Page-1" stroke="none" stroke-width="1" fill="none" fill-rule="evenodd" sketch:type="MSPage">
        <g id="burger-2" sketch:type="MSLayerGroup">
            <g sketch:type="MSShapeGroup">
                <path d="M50,100 C77.6142375,100 100,77.6142375 100,50 C100,22.3857625 77.6142375,0 50,0 C22.3857625,0 0,22.3857625 0,50 C0,77.6142375 22.3857625,100 50,100 Z" id="Oval-13" fill="#BE90D4"></path>
                <path d="M96.7556339,67.7556339 C89.59371,86.6045695 71.3611902,100 50,100 C49.6625428,100 49.3258664,99.9966569 48.9900022,99.9900022 L15,66 L26,67 L76.7318635,49.4389703 L76.6464466,49.3535534 L77.3535534,48.6464466 L77.7824222,49.0753154 L78,49 L96.7556339,67.7556339 Z" id="Oval-19" fill="#9B59D6"></path>
                <g id="hamburger8" transform="translate(19.000000, 25.000000)">
                    <g id="Group">
                        <path d="M53.6913812,23.1140902 C54.2392355,23.1140902 54.7585287,22.6185617 55.1012622,22.1838181 C55.4465921,21.7517173 55.5777137,21.0592989 55.4621709,20.5135569 C53.0461594,9.08733138 43.0900108,0.458529216 31.1553552,0.458529216 C19.2206996,0.458529216 9.26325279,9.00011838 6.84594302,20.4250224 C6.73169852,20.969443 6.86411828,21.7649314 7.20815002,22.2009964 C7.55218175,22.6344186 8.07147494,23.1140902 8.61932925,23.1140902 L53.6913812,23.1140902 Z" id="Shape" fill="#EB974E"></path>
                        <path d="M29.8369143,22.1838171 C29.8369143,22.1838172 35.0000002,24.7954161 35.0000002,25.0000002 C35.0000002,27.3372333 37.5770047,27.6787765 40.8172775,27.1844326 C46.3035969,26.3474264 53.6913812,23.11409 53.6913812,23.11409 C54.2392355,23.11409 54.7585287,22.6185615 55.1012622,22.1838179 C55.4465921,21.7517171 55.5777137,21.0592986 55.4621709,20.5135566 C54.6784771,16.8071745 52.7504236,13.1162097 50.3135231,9.99386987 C50.3135225,9.99386988 29.8369143,22.1838171 29.8369143,22.1838171 Z" id="Shape-3" fill="#E67E22"></path>
                        <path d="M8.35578796,33.8756466 C7.82351244,33.8756466 7.31979805,34.1372856 6.97446809,34.5522081 C6.63043635,34.9658092 6.48113956,35.5208011 6.56682294,36.0586146 C8.33631446,47.1188098 18.6559683,45.8621496 31.1553552,45.8621496 C43.6547422,45.8621496 53.974396,47.1280596 55.7425893,36.0652217 C55.8282726,35.5313724 55.6789758,34.9658092 55.3349441,34.5522081 C54.9909124,34.1372856 54.487198,33.8756466 53.9549225,33.8756466 L8.35578796,33.8756466 Z" id="Shape" fill="#EB974E"></path>
                        <path d="M10.0947267,33.8756466 C10.0947264,33.8756466 6.50585935,36.0652215 6.50585929,36.0652216 C6.76684571,36.7595215 7.16096274,40.9107398 8.81396476,41.7019043 C14.8192087,44.5761514 26.019411,45.8621496 31.1553552,45.8621496 C43.6547422,45.8621496 53.974396,47.1280596 55.7425893,36.0652217 C55.8282726,35.5313724 55.6789758,34.9658092 55.3349441,34.5522081 C54.9909124,34.1372856 54.487198,33.8756466 53.9549225,33.8756466 L10.0947267,33.8756466 Z" id="Shape-6" fill="#E67E22"></path>
                        <path d="M3.69569536,33.8756466 L4.32404011,33.8756466 L55.3458937,33.8756466 L55.9742384,33.8756466 C57.8904303,33.8756466 59.4405205,31.5865149 59.4405205,28.718299 L59.4405205,27.5387549 C59.4405205,24.6666524 57.8891321,22.3503154 55.9742384,22.3503154 L3.69569536,22.3503154 C1.77950351,22.3503154 0.233308049,24.6666524 0.233308049,27.5387549 L0.233308049,28.718299 C0.233308049,31.5884581 1.78080174,33.8756466 3.69569536,33.8756466 L3.69569536,33.8756466 Z" id="Shape" fill="#5A4042"></path>
                        <path d="M10.2902832,33.8756469 L55.0650392,33.8756466 L55.8541362,33.8756466 C58.2605559,33.8756466 60.2072124,31.5865149 60.2072124,28.718299 L60.2072124,27.5387549 C60.2072124,24.6666524 58.2589255,22.3503154 55.8541362,22.3503154 C55.8541362,22.3503154 27.2883298,23.8566894 27.2883301,23.8566894 C27.2883303,23.8566894 10.2902832,33.8756469 10.2902832,33.8756469 Z" id="Shape-5" fill="#483839"></path>
                    </g>
                </g>
                <path d="M26.340332,47.1362305 C26.340332,47.1362305 29.4576208,50.6595143 33.4038086,50.9990234 C37.3499964,51.3385326 38.1375442,48.1464361 45.8012695,48.8105469 C53.4649949,49.4746577 53.3841025,53.0578551 57.8076172,53.1137695 C62.2311318,53.1696839 62.4150537,49.3911081 64.3818359,49.0454102 C66.3486181,48.6997122 66.690205,51.6600129 69.4223633,51.0722656 C72.1545216,50.4845183 72.8481445,47.2241211 72.8481445,47.2241211 L26.340332,47.1362305 Z" id="Path-25" fill="#F9BF3B"></path>
                <path d="M48.8369011,47.1787446 C48.836901,47.2241211 46.0273437,48.7041289 46.0273438,48.7539063 C51.6193193,49.8225108 53.8317757,53.0635138 57.8076172,53.1137695 C62.2311318,53.1696839 62.4150537,49.3911081 64.3818359,49.0454102 C66.3486181,48.6997122 66.690205,51.6600129 69.4223633,51.0722656 C72.1545216,50.4845183 72.8481445,47.2241211 72.8481445,47.2241211 L48.8369011,47.1787446 Z" id="Path-26" fill="#FAB10B"></path>
                <path d="M34.6977539,68.7314453 C30.5486324,68.8899255 26.7856445,64.8618164 26.7856445,64.8618164 L19.4936523,61.4692383 L14.1757812,65.4643555 L18.0092773,70.6489258 L20.3583984,71.9707031 L78.3833008,71.9707031 L81.2055664,69.3857422 L81.7109375,65.6992188 L77.5351562,63.628418 L74.4682617,63.0405273 C74.4682617,63.0405273 46.4428382,68.2828291 34.6977539,68.7314453 Z" id="Path-28" fill="#FFFFFF"></path>
                <path d="M38.8574223,65.6992187 C35.5297856,67.703125 26.751709,64.8618164 26.751709,64.8618164 C26.751709,64.8618164 22.2491091,62.7669949 22.2491089,62.7669948 C22.2491088,62.7669948 15.2709203,66.9913602 15.2709203,66.9913601 C15.2709203,66.9913601 17.9753418,70.6489258 17.9753418,70.6489258 L20.3244629,71.9707031 L78.3493652,71.9707031 L81.1716309,69.3857422 L81.677002,65.6992187 L77.5012207,63.628418 L74.4343262,63.0405273 C74.4343262,63.0405273 42.1850591,63.6953125 38.8574223,65.6992187 Z" id="Path-29" fill="#DBD3D3"></path>
            </g>
        </g>
    </g>
</svg>