<?xml version="1.0" encoding="UTF-8" standalone="no"?>
<svg width="100px" height="100px" viewBox="0 0 100 100" version="1.1" xmlns="http://www.w3.org/2000/svg" xmlns:xlink="http://www.w3.org/1999/xlink" xmlns:sketch="http://www.bohemiancoding.com/sketch/ns">
    <!-- Generator: Sketch 3.2 (9961) - http://www.bohemiancoding.com/sketch -->
    <title>coffee</title>
    <desc>Created with Sketch.</desc>
    <defs></defs>
    <g id="Page-1" stroke="none" stroke-width="1" fill="none" fill-rule="evenodd" sketch:type="MSPage">
        <g id="coffee" sketch:type="MSLayerGroup">
            <g id="Group" sketch:type="MSShapeGroup">
                <g>
                    <circle id="Oval-4" fill="#EB974E" cx="50" cy="50" r="50"></circle>
                    <path d="M58.0519709,99.3550564 C79.3624291,95.9050344 96.1587624,78.9856236 99.4239957,57.6137993 L72.9340833,33.1821289 L46.3658854,69.2591146 L26.1809896,69.3763021 L58.0519709,99.3550564 Z" id="Oval-3" fill="#E67E22"></path>
                    <g id="cup16" transform="translate(24.000000, 33.000000)" fill="#D2D7D1">
                        <g id="Group">
                            <path d="M59.9575,15.7182581 C59.9575,10.7526774 56.53375,6.57464516 48.95,5.29141935 C48.98375,3.44458065 48.98625,1.66316129 48.98625,0 L0.625,0 C0.625,10.8747097 0.6375,26.6709677 10.345,34.2155806 C4.45375,34.671 0.625,35.391871 0.625,36.2058387 C0.625,37.5809032 11.45125,38.6942903 24.80625,38.6942903 C38.16125,38.6942903 48.98625,37.5809032 48.98625,36.2058387 C48.98625,35.391871 45.1575,34.6697419 39.2675,34.2155806 C41.90125,32.1687097 43.8275,29.5192258 45.22625,26.5187419 C55.425,26.1060968 59.9575,21.4349032 59.9575,15.7182581 Z M48.77,10.0204839 C53.025,11.0130968 53.785,13.1128065 53.73625,15.8314839 C53.68125,18.9187742 52.7925,21.0084194 46.9825,21.7280323 C48.035,17.9689355 48.5325,13.9355806 48.77,10.0204839 L48.77,10.0204839 Z" id="Shape"></path>
                        </g>
                    </g>
                    <path d="M73.3115234,33 L25,33 C25,43.8747097 24.5327344,59.5071449 34.2402344,67.0517578 C34.240234,67.0517578 73.3115234,34.3228102 73.3115234,33 Z" id="Path-2" fill="#F5F8F8"></path>
                </g>
            </g>
        </g>
    </g>
</svg>