<?xml version="1.0" encoding="UTF-8" standalone="no"?>
<svg width="100px" height="100px" viewBox="0 0 100 100" version="1.1" xmlns="http://www.w3.org/2000/svg" xmlns:xlink="http://www.w3.org/1999/xlink" xmlns:sketch="http://www.bohemiancoding.com/sketch/ns">
    <!-- Generator: Sketch 3.2 (9961) - http://www.bohemiancoding.com/sketch -->
    <title>coffee 2</title>
    <desc>Created with Sketch.</desc>
    <defs></defs>
    <g id="Page-1" stroke="none" stroke-width="1" fill="none" fill-rule="evenodd" sketch:type="MSPage">
        <g id="coffee-2" sketch:type="MSLayerGroup">
            <g id="coffee" sketch:type="MSShapeGroup">
                <g>
                    <g id="Group">
                        <circle id="Oval-4" fill="#EB974E" cx="50" cy="50" r="50"></circle>
                        <path d="M65.5384829,97.5384829 C81.5975758,92.292763 94.0793503,79.1362711 98.3799603,62.6728535 L84.3535534,48.6464466 L70,40.9999999 L62,52.9999999 L66,58 L35,67 L65.5384829,97.5384829 Z" id="Oval-21" fill="#E67E22"></path>
                        <g id="cup16" transform="translate(24.000000, 33.000000)">
                            <g id="Group">
                                <path d="M59.9575,15.7182581 C59.9575,10.7526774 56.53375,6.57464516 48.95,5.29141935 C48.98375,3.44458065 48.98625,1.66316129 48.98625,0 L0.625,0 C0.625,10.8747097 0.6375,26.6709677 10.345,34.2155806 C10.3450003,34.21558 11.45125,36.6942903 24.80625,36.6942903 C38.16125,36.6942903 39,34.21558 39.2675,34.2155806 C41.90125,32.1687097 43.8275,29.5192258 45.22625,26.5187419 C55.425,26.1060968 59.9575,21.4349032 59.9575,15.7182581 Z M48.77,10.0204839 C53.025,11.0130968 53.785,13.1128065 53.73625,15.8314839 C53.68125,18.9187742 52.7925,21.0084194 46.9825,21.7280323 C48.035,17.9689355 48.5325,13.9355806 48.77,10.0204839 L48.77,10.0204839 Z" id="Shape" fill="#D2D7D1"></path>
                                <path d="M48.98625,0 L0.625,0 C0.625,10.8747097 0.6375,26.6709677 10.345,34.2155806 C10.3450003,34.21558 48.98625,1.66316129 48.98625,0 Z" id="Shape-8" fill="#F5F8F8"></path>
                            </g>
                        </g>
                    </g>
                </g>
            </g>
        </g>
    </g>
</svg>