<?xml version="1.0" encoding="UTF-8" standalone="no"?>
<svg width="36px" height="36px" viewBox="0 0 36 36" version="1.1" xmlns="http://www.w3.org/2000/svg" xmlns:xlink="http://www.w3.org/1999/xlink" xmlns:sketch="http://www.bohemiancoding.com/sketch/ns">
    <!-- Generator: Sketch 3.2 (9961) - http://www.bohemiancoding.com/sketch -->
    <title>Shape</title>
    <desc>Created with Sketch.</desc>
    <defs></defs>
    <g id="Page-1" stroke="none" stroke-width="1" fill="none" fill-rule="evenodd" sketch:type="MSPage">
        <g id="github17" sketch:type="MSLayerGroup" fill="#818181">
            <path d="M24.052,35.029 C23.88,35.092 23.707,35.166 23.529,35.197 C22.851,35.318 22.417,34.968 22.413,34.275 C22.404,32.988 22.404,31.703 22.425,30.416 C22.447,28.935 22.413,27.474 21.286,26.254 C21.956,26.134 22.552,26.05 23.135,25.916 C26.997,25.029 29.003,22.593 29.259,18.55 C29.389,16.491 29.022,14.603 27.655,12.982 C27.556,12.868 27.552,12.609 27.598,12.443 C27.963,11.103 27.856,9.794 27.432,8.484 C27.327,8.157 27.153,8.056 26.831,8.077 C25.697,8.14 24.658,8.538 23.742,9.15 C22.859,9.743 22.037,9.872 20.988,9.632 C18.678,9.111 16.353,9.263 14.048,9.797 C13.787,9.859 13.436,9.776 13.197,9.636 C12.115,9.002 11.033,8.386 9.785,8.14 C8.82,7.952 8.736,8 8.48,8.933 C8.158,10.109 8.126,11.286 8.455,12.47 C8.502,12.642 8.453,12.918 8.338,13.045 C5.781,15.898 6.707,21.289 8.43,23.354 C9.77,24.958 11.55,25.68 13.526,26.055 C13.871,26.12 14.214,26.169 14.559,26.228 C14.263,26.998 13.997,27.725 13.696,28.44 C13.637,28.578 13.45,28.694 13.297,28.753 C11.359,29.505 9.693,28.952 8.584,27.193 C7.991,26.255 7.23,25.554 6.096,25.351 C6.06,25.345 6.023,25.325 5.99,25.33 C5.685,25.41 5.383,25.494 5.079,25.576 C5.25,25.814 5.371,26.134 5.6,26.277 C6.561,26.886 7.186,27.752 7.599,28.775 C8.248,30.379 9.508,31.095 11.145,31.234 C11.944,31.3 12.751,31.244 13.626,31.244 C13.626,32.24 13.662,33.377 13.611,34.509 C13.585,35.119 12.972,35.363 12.238,35.113 C10.291,34.447 8.486,33.492 6.927,32.15 C1.298,27.3 -0.872,21.17 0.999,13.994 C2.864,6.843 7.725,2.455 14.993,1.078 C25.05,-0.823 34.577,6.5 35.575,16.709 C36.362,24.758 31.626,32.289 24.052,35.029 L24.052,35.029 Z M14.571,26.189 C14.565,26.203 14.561,26.214 14.555,26.227 C14.573,26.23 14.591,26.233 14.61,26.236 C14.624,26.238 14.636,26.262 14.571,26.189 L14.571,26.189 Z M10.021,29.371 C10.178,29.468 10.328,29.591 10.498,29.644 C10.56,29.664 10.675,29.523 10.878,29.373 C10.596,29.265 10.43,29.172 10.255,29.148 C10.187,29.139 10.099,29.293 10.021,29.371 L10.021,29.371 Z M11.454,29.617 C11.477,29.722 11.686,29.853 11.809,29.851 C11.928,29.849 12.044,29.691 12.163,29.601 C12.055,29.503 11.947,29.406 11.615,29.107 C11.543,29.314 11.424,29.482 11.454,29.617 L11.454,29.617 Z M13.212,29.193 C13.064,29.228 12.939,29.365 12.804,29.459 C12.883,29.558 12.962,29.652 13.089,29.808 C13.264,29.648 13.383,29.537 13.503,29.429 C13.403,29.344 13.286,29.176 13.212,29.193 L13.212,29.193 Z M8.854,28.6 C8.936,28.756 9.063,28.889 9.235,29.108 C9.35,28.92 9.475,28.776 9.453,28.747 C9.344,28.604 9.196,28.487 9.05,28.38 C9.04,28.373 8.837,28.566 8.854,28.6 L8.854,28.6 Z" id="Shape" sketch:type="MSShapeGroup"></path>
        </g>
    </g>
</svg>