<?xml version="1.0" encoding="UTF-8" standalone="no"?>
<svg width="30px" height="25px" viewBox="0 0 30 25" version="1.1" xmlns="http://www.w3.org/2000/svg" xmlns:xlink="http://www.w3.org/1999/xlink" xmlns:sketch="http://www.bohemiancoding.com/sketch/ns">
    <!-- Generator: Sketch 3.2 (9961) - http://www.bohemiancoding.com/sketch -->
    <title>Shape</title>
    <desc>Created with Sketch.</desc>
    <defs></defs>
    <g id="Page-1" stroke="none" stroke-width="1" fill="none" fill-rule="evenodd" sketch:type="MSPage">
        <path d="M30,8.44356641 C30,10.7206895 28.9096289,12.7685762 27.1731445,14.1875 L27.1875,14.1875 L17.8125,22.625 C16.875,23.46875 15.9375,24.3125 15,24.3125 C14.0625,24.3125 13.125,23.46875 12.1875,22.625 L2.8125,14.1875 L2.82685547,14.1875 C1.09037109,12.7685762 0,10.7206895 0,8.44356641 C0,4.16000586 3.85833984,0.6875 8.61785156,0.6875 C11.1479883,0.6875 13.423418,1.66883398 15,3.23166992 C16.576582,1.66883398 18.8520117,0.6875 21.3821484,0.6875 C26.1416016,0.6875 30,4.16000586 30,8.44356641 L30,8.44356641 Z" id="Shape" fill="#D2D7D3" sketch:type="MSShapeGroup"></path>
    </g>
</svg>