<?xml version="1.0" encoding="UTF-8" standalone="no"?>
<svg width="102px" height="102px" viewBox="0 0 102 102" version="1.1" xmlns="http://www.w3.org/2000/svg" xmlns:xlink="http://www.w3.org/1999/xlink" xmlns:sketch="http://www.bohemiancoding.com/sketch/ns">
    <!-- Generator: Sketch 3.2 (9961) - http://www.bohemiancoding.com/sketch -->
    <title>marker</title>
    <desc>Created with Sketch.</desc>
    <defs></defs>
    <g id="Page-1" stroke="none" stroke-width="1" fill="none" fill-rule="evenodd" sketch:type="MSPage">
        <g id="marker" sketch:type="MSLayerGroup">
            <g id="Page-1">
                <g>
                    <g>
                        <g id="map39-+-map39-2-+-Shape">
                            <g id="map39">
                                <path d="M82.875,0 L19.125,0 C8.56023047,0 0,8.56023047 0,19.125 L0,51 C0,61.5647695 8.56023047,70.125 19.125,70.125 L31.8718125,70.125 L51,102 L70.125,70.125 L82.875,70.125 C93.4397695,70.125 102,61.5647695 102,51 L102,19.125 C102,8.56023047 93.4397695,0 82.875,0 L82.875,0 L82.875,0 Z" id="Shape" fill="#2ECC71" sketch:type="MSShapeGroup"></path>
                                <text id="YOU-ARE" fill="#FBFBFB" sketch:type="MSTextLayer" font-family="Open Sans" font-size="16" font-weight="bold" sketch:alignment="middle">
                                    <tspan x="16.234375" y="30.4453125" fill="#FFFFFF">YOU ARE</tspan>
                                </text>
                                <text id="HERE" fill="#FBFBFB" sketch:type="MSTextLayer" font-family="Open Sans" font-size="16" font-weight="bold" sketch:alignment="middle">
                                    <tspan x="30.6367187" y="53.4453125" fill="#FFFFFF">HERE</tspan>
                                </text>
                            </g>
                            <path d="M49.3372386,99.2291929 L51,102 L70.125,70.125 L82.875,70.125 C93.4397695,70.125 102,61.5647695 102,51 L102,17.098697 C101.999998,17.098697 48.6270069,98.0456704 49.3372386,99.2291929 L49.3372386,99.2291929 Z" id="Shape" fill="#1C924E" sketch:type="MSShapeGroup"></path>
                        </g>
                    </g>
                </g>
            </g>
        </g>
    </g>
</svg>