<?xml version="1.0" encoding="UTF-8" standalone="no"?>
<svg width="100px" height="100px" viewBox="0 0 100 100" version="1.1" xmlns="http://www.w3.org/2000/svg" xmlns:xlink="http://www.w3.org/1999/xlink" xmlns:sketch="http://www.bohemiancoding.com/sketch/ns">
    <!-- Generator: Sketch 3.2 (9961) - http://www.bohemiancoding.com/sketch -->
    <title>asian</title>
    <desc>Created with Sketch.</desc>
    <defs></defs>
    <g id="Page-1" stroke="none" stroke-width="1" fill="none" fill-rule="evenodd" sketch:type="MSPage">
        <g id="asian" sketch:type="MSLayerGroup">
            <g sketch:type="MSShapeGroup">
                <g>
                    <circle id="Oval-2" fill="#68C3A3" cx="50" cy="50" r="50"></circle>
                    <path d="M68.5688321,96.4384391 C86.9886824,89.0664388 100,71.0526974 100,50 C100,48.4757753 99.931797,46.9674804 99.7982762,45.4780004 L69.2552083,23.5221354 L36.5416667,56.6171875 L40.9427083,78.140625 L68.5688372,96.4384371 Z" id="Oval-1" fill="#03A678"></path>
                    <g id="chinese13" transform="translate(20.000000, 22.000000)">
                        <path d="M37.4898265,25.8758177 L31.4585564,19.656452 L45.1124438,6.40789625 L49.5973442,2.73155056 L47.0272007,0.158537052 L43.1291497,4.67255825 L30.029985,18.1824859 L16.7444849,4.48617009 L13.0713215,0 L10.501178,2.5730135 L15.0139216,6.47216802 L28.6014136,19.6543097 L22.5680017,25.8758177 L0,25.8758177 C0,25.8758177 2.22317413,39.4500172 5.67144999,43.5248479 C9.11972585,47.5996786 20.6853716,54.2368109 20.6853716,54.2368109 L20.6853716,55.9978576 L29.6937246,55.9978576 L30.3062754,55.9978576 L39.3146284,55.9978576 L39.3146284,54.2368109 C39.3146284,54.2368109 50.8845577,47.5996786 54.32855,43.5248479 C57.7768259,39.4500172 60,25.8758177 60,25.8758177 L37.4898265,25.8758177 L37.4898265,25.8758177 Z M25.050332,25.8758177 L30.0321268,21.0404377 L35.0139216,25.8758177 L25.050332,25.8758177 L25.050332,25.8758177 Z" id="Shape" fill="#52B3D9"></path>
                        <path d="M29.4355469,25.8758177 C29.6937255,25.8758177 7.36318197,45.2049308 7.36318197,45.2049305 C11.903801,49.1973651 20.6853716,54.2368109 20.6853716,54.2368109 L20.6853716,55.9978576 L29.6937246,55.9978576 L30.3062754,55.9978576 L39.3146284,55.9978576 L39.3146284,54.2368109 C39.3146284,54.2368109 50.8845577,47.5996786 54.32855,43.5248479 C57.7768259,39.4500172 60,25.8758177 60,25.8758177 L37.4898265,25.8758177 L29.4355469,25.8758177 Z" id="Shape-7" fill="#1594C6"></path>
                    </g>
                    <path d="M27.4231768,67.1888021 C18.8463535,58.1028646 21.0273438,47.5872396 21.0273438,47.5872396 L79.2747396,47.8216146 C79.2747396,47.8216146 80.4075508,58.5338548 71.8372383,67.1888021 C63.2669258,75.8437494 50.4335938,75.1210937 50.4335938,75.1210937 C50.4335938,75.1210937 36,76.2747396 27.4231768,67.1888021 Z" id="Path-3"></path>
                    <path d="M32.9466146,21.9322917 C32.9506535,22.2777026 57.3502604,47.6263021 57.3502604,47.6263021 C57.3502604,47.6263021 55.0013023,47.5091149 55.0013021,47.5091146 C55.0013018,47.5091143 32.0089053,26.1032403 30.9453125,24.8697917 C29.8817197,23.636343 32.9425756,21.5868807 32.9466146,21.9322917 Z" id="Path-4" stroke="#FDE3A7" fill="#FDE3A7"></path>
                    <path d="M51.9604494,41.7543952 C51.9644884,42.0998062 57.3502604,47.6263021 57.3502604,47.6263021 C57.3502604,47.6263021 55.0013023,47.5091149 55.0013021,47.5091146 C55.0013018,47.5091143 51.3111509,44.3096208 50.2475582,43.0761722 C49.1839654,41.8427235 51.9564105,41.4089843 51.9604494,41.7543952 Z" id="Path-10" stroke="#B09E74" fill="#B09E74"></path>
                    <path d="M44.9110729,22.0386648 C44.9151119,22.3840758 69.3147188,47.7326753 69.3147188,47.7326753 C69.3147188,47.7326753 66.9657607,47.6154881 66.9657604,47.6154878 C66.9657602,47.6154875 43.9733636,26.2096135 42.9097708,24.9761648 C41.8461781,23.7427162 44.907034,21.6932539 44.9110729,22.0386648 Z" id="Path-5" stroke="#FDE3A7" fill="#FDE3A7" transform="translate(56.000000, 34.866338) scale(-1, 1) translate(-56.000000, -34.866338) "></path>
                    <path d="M19.8606771,47 L80,47 C80,47 79.6324857,52.6002603 79,53 C78.3675143,53.3997397 22.0794222,54.4117007 21.1051433,53 C20.4417318,52.0387368 19.8606771,47 19.8606771,47 Z" id="Rectangle-1" fill="#F6F8F9"></path>
                    <path d="M50.1152344,47 L80,47 C80,47 79.6324857,52.6002603 79,53 C78.6310224,53.233199 59.3208405,53.6747545 43.1013222,53.7219223 C43.1013221,53.6747546 50.1152343,47 50.1152344,47 Z" id="Rectangle-2" fill="#DADBDC"></path>
                    <path d="M44.9339193,46.9498692 L69.2076823,23 C69.2076823,23 69.9489834,23.7331837 70.0667311,24.0055338 C70.1944261,24.300892 70.0667311,24.8574219 70.0667311,24.8574219 L46.5761718,46.9498692 L44.9339193,46.9498692 Z" id="Path-7" fill-opacity="0.3" fill="#000000"></path>
                </g>
            </g>
        </g>
    </g>
</svg>