<?xml version="1.0" encoding="UTF-8" standalone="no"?>
<svg width="101px" height="101px" viewBox="0 0 101 101" version="1.1" xmlns="http://www.w3.org/2000/svg" xmlns:xlink="http://www.w3.org/1999/xlink" xmlns:sketch="http://www.bohemiancoding.com/sketch/ns">
    <!-- Generator: Sketch 3.2 (9961) - http://www.bohemiancoding.com/sketch -->
    <title>restaurant 2</title>
    <desc>Created with Sketch.</desc>
    <defs></defs>
    <g id="Page-1" stroke="none" stroke-width="1" fill="none" fill-rule="evenodd" sketch:type="MSPage">
        <g id="restaurant-2" sketch:type="MSLayerGroup">
            <g sketch:type="MSShapeGroup">
                <circle id="Oval-8" fill="#52B3D9" cx="50" cy="50" r="50"></circle>
                <path d="M99.9559354,47.5581857 C99.9973569,48.3928066 100.018313,49.2328136 100.018313,50.0777153 C100.018313,77.6919528 77.6325508,100.077715 50.0183133,100.077715 C49.9506656,100.077715 49.8830492,100.077581 49.8154644,100.077312 L27.2331571,78.0845512 L77.2810086,25.4439262 L99.9559354,47.5581857 Z" id="Oval-12" fill="#1E8BC3"></path>
                <g id="cutlery1" transform="translate(20.000000, 21.000000)">
                    <path d="M40.7996324,25.0134237 C44.1047794,26.8741356 50.4705882,26.3041356 55.3106618,21.2166441 C60.1102941,16.171661 61.9246324,8.79450847 57.3878676,3.86738983 L57.3897059,3.86545763 C57.3694853,3.84420339 57.2922794,3.76305085 57.2720588,3.74179661 C57.2720588,3.74179661 57.2720588,3.74372881 57.2702206,3.74372881 C52.5827206,-1.02494915 45.5661765,0.882135593 40.7647059,5.92711864 C35.9246324,11.0146102 35.3823529,17.7058305 37.1525735,21.1799322 C36.6966912,24.0241356 32.9834559,27.1098644 29.6544118,29.1135593 C27.0863971,27.448 23.8474265,24.5052542 23.5073529,18.5888475 C23.7536765,16.2257627 23.0128676,13.7699322 21.2922794,11.9613898 C21.1341912,11.7952203 20.6801471,11.3913898 20.6801471,11.3913898 L8.13602941,1.12172881 L6.99264706,2.32162712 L20.6047794,15.7446441 L19.1286765,17.2962034 L5.94117647,3.43457627 L4.72977941,4.7059661 L17.9154412,18.5695254 L16.6691176,19.8795593 L3.48345588,6.01986441 L2.38051471,7.16952542 L15.4871324,20.9461356 L13.9852941,22.5305424 L1.25,8.35976271 L0,9.67752542 L10.4099265,23.4657288 C10.4099265,23.4657288 10.6580882,23.7323729 10.7628676,23.8309153 C12.2775735,25.2221017 14.1801471,25.8790508 16.0625,25.8230169 C16.0753676,25.8230169 16.0955882,25.8268814 16.1029412,25.8288136 C21.0588235,25.8809831 24.1213235,29.0478644 26.0477941,31.78 C21.3345588,36.7361017 6.70772059,52.1125763 6.70772059,52.1125763 L6.71139706,52.1164407 C6.69669118,52.1280339 6.67830882,52.1415593 6.66360294,52.1570169 C5.47242647,53.4071525 5.47242647,55.4378983 6.66360294,56.6918983 C6.72426471,56.755661 6.95404412,56.9952542 7.01286765,57.0590169 C8.20404412,58.3110847 10.1378676,58.3110847 11.3272059,57.0609492 C11.3419118,57.0454915 11.3547794,57.0261695 11.3658088,57.0107119 L11.3694853,57.0145763 C11.3694853,57.0145763 24.9522059,42.7375254 30.1599265,37.2655254 C35.1158088,42.4728136 48.8547794,56.9102373 48.8547794,56.9102373 L48.8584559,56.9063729 C48.8694853,56.9198983 48.875,56.9372881 48.8933824,56.9566102 C50.0643382,58.1854915 51.9724265,58.1854915 53.1452206,56.9527458 C54.3180147,55.72 54.3216912,53.7182373 53.1470588,52.4835593 C53.1286765,52.4661695 53.1121324,52.4603729 53.0974265,52.4429831 L53.0992647,52.4391186 C53.0992647,52.4391186 37.9264706,36.4907119 33.7169118,32.0621017 C35.6176471,28.806339 38.3069853,25.4539661 40.7996324,25.0134237 L40.7996324,25.0134237 Z" id="Shape" fill="#DADFE1"></path>
                    <path d="M55.3106618,21.2166441 C60.1102941,16.171661 57.3897059,3.86545763 57.3897059,3.86545763 C57.3694853,3.84420339 57.2922794,3.76305085 57.2720588,3.74179661 C57.2720588,3.74179661 10.1378676,58.3110847 11.3272059,57.0609492 C11.3419118,57.0454915 24.9522059,42.7375254 30.1599265,37.2655254 C35.1158088,42.4728136 48.8547794,56.9102373 48.8547794,56.9102373 C50.0643382,58.1854915 51.9724265,58.1854915 53.1452206,56.9527458 C54.3180147,55.72 54.3216912,53.7182373 53.1470588,52.4835593 C53.0992647,52.4391186 37.9264706,36.4907119 33.7169118,32.0621017 C35.6176471,28.806339 38.3069853,25.4539661 40.7996324,25.0134237 C44.1047794,26.8741356 50.4705882,26.3041356 55.3106618,21.2166441 Z" id="Shape-3" fill="#BDC3C7"></path>
                    <path d="M55.3106618,21.2166441 C60.1102941,16.171661 61.9246324,8.79450847 57.3878676,3.86738983 C57.3694853,3.84420339 6.95404412,56.9952542 7.01286765,57.0590169 C8.20404412,58.3110847 10.1378676,58.3110847 11.3272059,57.0609492 C11.3694853,57.0145763 24.9522059,42.7375254 30.1599265,37.2655254 C30.1599262,37.265526 33.7169121,32.0621016 33.7169118,32.0621017 C35.6176471,28.806339 38.3069853,25.4539661 40.7996324,25.0134237 C44.1047794,26.8741356 50.4705882,26.3041356 55.3106618,21.2166441 Z" id="Shape-2" fill="#BDC3C7"></path>
                </g>
            </g>
        </g>
    </g>
</svg>