<?xml version="1.0" encoding="UTF-8" standalone="no"?>
<svg width="100px" height="100px" viewBox="0 0 100 100" version="1.1" xmlns="http://www.w3.org/2000/svg" xmlns:xlink="http://www.w3.org/1999/xlink" xmlns:sketch="http://www.bohemiancoding.com/sketch/ns">
    <!-- Generator: Sketch 3.2 (9961) - http://www.bohemiancoding.com/sketch -->
    <title>sushi 2</title>
    <desc>Created with Sketch.</desc>
    <defs></defs>
    <g id="Page-1" stroke="none" stroke-width="1" fill="none" fill-rule="evenodd" sketch:type="MSPage">
        <g id="sushi-2" sketch:type="MSLayerGroup">
            <g id="sushi" sketch:type="MSShapeGroup">
                <g>
                    <circle id="Oval-5" fill="#E74C3C" cx="50" cy="50" r="50"></circle>
                    <path d="M51.9622037,99.9622037 C76.0718129,99.0318074 95.8030403,81.0302493 99.410261,57.7031542 L84.3535534,42.6464466 L83.6464466,43.3535534 L84.3923301,44.0994369 L30,53 L18,66 L51.9622037,99.9622037 Z" id="Oval-18" fill="#96281B"></path>
                    <ellipse id="Oval-9" fill="#F5F8F8" cx="44" cy="35.5" rx="13" ry="5.5"></ellipse>
                    <ellipse id="Oval-11" fill="#F5F8F8" cx="33" cy="52.5" rx="13" ry="5.5"></ellipse>
                    <path d="M68.8835937,38.1073437 C66.8276562,38.1073437 64.8659375,38.2592187 63.0575,38.5348437 C61.5275,38.7682812 60.3195312,38.0721875 60.3195312,36.8375 L60.3195312,34.6015625 C60.3195312,31.0775 53.0464062,28.2214062 44.0759375,28.2214062 C35.1054687,28.2214062 27.83375,31.0775 27.83375,34.6015625 L27.83375,43.07 C27.83375,44.369375 26.5864062,45.5871875 25.0915625,45.9401562 C20.3679687,47.0553125 17.2025,49.083125 17.2025,51.40625 L17.2025,65.2451562 C17.2025,68.7734375 24.4742187,71.628125 33.4446875,71.628125 C42.4151562,71.628125 49.686875,68.7734375 49.686875,65.2479687 L49.686875,56.778125 C49.686875,55.47875 50.3576562,54.33125 51.1732812,54.17375 C51.9889062,54.01625 52.64,54.8557812 52.64,56.0904687 L52.64,58.3264062 C52.64,61.8504687 59.913125,64.7065625 68.8821875,64.7065625 C77.8526562,64.7065625 85.1271875,61.8504687 85.1271875,58.3264062 L85.1271875,44.4875 C85.1271875,40.9648437 77.8540625,38.1073437 68.8835937,38.1073437 L68.8835937,38.1073437 Z M33.4446875,57.1296875 C26.5596875,57.1296875 20.976875,54.9359375 20.976875,52.2317187 C20.976875,49.5275 26.5582812,47.33375 33.4446875,47.33375 C40.3310937,47.33375 45.9125,49.5260937 45.9125,52.2317187 C45.9125,54.9373437 40.3296875,57.1296875 33.4446875,57.1296875 L33.4446875,57.1296875 Z M44.0773437,40.325 C37.1909375,40.325 31.6095312,38.1326562 31.6095312,35.4270312 C31.608125,32.7214062 37.1909375,30.5290625 44.0773437,30.5290625 C50.96375,30.5290625 56.5465625,32.7214062 56.5465625,35.4270312 C56.5451562,38.1326562 50.96375,40.325 44.0773437,40.325 L44.0773437,40.325 Z M68.885,50.2109375 C62,50.2109375 56.4171875,48.0185937 56.4171875,45.3129687 C56.4171875,42.6073437 61.9985937,40.415 68.885,40.415 C75.7714062,40.415 81.3542188,42.6073437 81.3542188,45.3129687 C81.3542188,48.0185937 75.7714062,50.2109375 68.885,50.2109375 L68.885,50.2109375 Z" id="Shape" fill="#2C3E50"></path>
                    <path d="M63.0575,38.5348437 C62.2401755,38.6595458 61.5147486,38.5189889 61.0162748,38.1727689 C60.5816249,37.8708783 17.2025,65.2451562 17.2025,65.2451562 C17.2025,68.7734375 24.4742187,71.628125 33.4446875,71.628125 C42.4151562,71.628125 49.686875,68.7734375 49.686875,65.2479687 L49.686875,56.778125 C49.686875,55.47875 50.3576562,54.33125 51.1732812,54.17375 C51.9889062,54.01625 52.64,54.8557812 52.64,56.0904687 L52.64,58.3264062 C52.64,61.8504687 59.913125,64.7065625 68.8821875,64.7065625 C77.8526562,64.7065625 85.1271875,61.8504687 85.1271875,58.3264062 L85.1271875,44.4875 C85.1271875,40.9648437 77.8540625,38.1073437 68.8835937,38.1073437 C66.8276562,38.1073437 64.8659375,38.2592187 63.0575,38.5348437 Z M33.4446875,57.1296875 C26.5596875,57.1296875 20.976875,54.9359375 20.976875,52.2317188 C20.976875,49.5275 26.5582812,47.33375 33.4446875,47.33375 C40.3310937,47.33375 45.9125,49.5260938 45.9125,52.2317188 C45.9125,54.9373438 40.3296875,57.1296875 33.4446875,57.1296875 L33.4446875,57.1296875 Z M44.0773438,40.325 C37.1909375,40.325 31.6095313,38.1326562 31.6095313,35.4270312 C31.608125,32.7214062 37.1909375,30.5290625 44.0773438,30.5290625 C50.96375,30.5290625 56.5465625,32.7214062 56.5465625,35.4270312 C56.5451563,38.1326562 50.96375,40.325 44.0773438,40.325 L44.0773438,40.325 Z M56.4171875,45.3129687 C56.4171875,42.6073437 61.9985937,40.415 68.885,40.415 C75.7714062,40.415 81.3542187,42.6073437 81.3542187,45.3129687 C81.3542187,48.0185937 75.7714062,50.2109375 68.885,50.2109375 C62,50.2109375 56.4171875,48.0185937 56.4171875,45.3129687 Z M33.4446875,57.1296875 C26.5596875,57.1296875 20.976875,54.9359375 20.976875,52.2317188 C20.976875,49.5275 26.5582812,47.33375 33.4446875,47.33375 C40.3310937,47.33375 45.9125,49.5260938 45.9125,52.2317188 C45.9125,54.9373438 40.3296875,57.1296875 33.4446875,57.1296875 L33.4446875,57.1296875 Z" id="Shape-4" fill="#101E2C"></path>
                    <ellipse id="Oval-10" fill="#F5F8F8" cx="44" cy="35.5" rx="13" ry="5.5"></ellipse>
                    <ellipse id="Oval-13" fill="#F5F8F8" cx="33" cy="52.5" rx="13" ry="5.5"></ellipse>
                    <ellipse id="Oval-16" fill="#ADADAD" cx="69" cy="45.5" rx="13" ry="5.5"></ellipse>
                    <path d="M29.0626942,57.7432252 C29.0626942,57.9999999 31.6274995,58 33,58 C40.1797017,58 46,55.5375661 46,52.5 C46,51.1772494 44.8963034,49.9635604 43.0572754,49.01478 C43.0572756,49.01478 28.4916992,58.0000004 29.0626942,57.7432252 Z" id="Oval-14" fill="#ADADAD"></path>
                    <ellipse id="Oval" fill="#E74C3C" cx="43.5246875" cy="34.9995313" rx="6.89765625" ry="2.32171875"></ellipse>
                    <ellipse id="Oval-6" fill="#E74C3C" cx="33" cy="52.2464844" rx="6.89765625" ry="2.32171875"></ellipse>
                    <path d="M34.079316,54.5399457 C37.3760958,54.3655672 39.8976562,53.4051434 39.8976562,52.2464844 C39.8976562,51.9495211 39.7320169,51.6655798 39.4301397,51.4045568 C39.7320168,51.6655798 33.7276579,54.5585462 34.079316,54.5399457 Z" id="Oval-15" fill="#96281B"></path>
                    <path d="M68.9370313,47.361875 C72.7465016,47.361875 75.8346875,46.3224061 75.8346875,45.0401562 C75.8346875,43.7579064 72.7465016,42.7184375 68.9370313,42.7184375 C65.1275609,42.7184375 62.039375,43.7579064 62.039375,45.0401562 C62.039375,46.3224061 65.1275609,47.361875 68.9370313,47.361875 Z" id="Oval" fill="#96281B"></path>
                </g>
            </g>
        </g>
    </g>
</svg>