<?xml version="1.0" encoding="UTF-8" standalone="no"?>
<svg width="121px" height="120px" viewBox="0 0 121 120" version="1.1" xmlns="http://www.w3.org/2000/svg" xmlns:xlink="http://www.w3.org/1999/xlink" xmlns:sketch="http://www.bohemiancoding.com/sketch/ns">
    <!-- Generator: Sketch 3.2 (9961) - http://www.bohemiancoding.com/sketch -->
    <title>Untitled 2</title>
    <desc>Created with Sketch.</desc>
    <defs></defs>
    <g id="Page-1" stroke="none" stroke-width="1" fill="none" fill-rule="evenodd" sketch:type="MSPage">
        <g id="watermarkCC" sketch:type="MSLayerGroup">
            <g id="Page-1" sketch:type="MSShapeGroup">
                <g id="Group-3">
                    <g id="Group-+-Line-+-Line-2">
                        <g id="Group">
                            <g>
                                <g>
                                    <path d="M58.1914894,119.776271 C86.3932638,119.776271 109.255319,96.8593211 109.255319,68.5898305 C109.255319,40.3203399 86.3932638,17.4033898 58.1914894,17.4033898 C29.9897149,17.4033898 7.12765957,40.3203399 7.12765957,68.5898305 C7.12765957,96.8593211 29.9897149,119.776271 58.1914894,119.776271 L58.1914894,119.776271 Z" id="Oval-1" fill="#D2D2D2"></path>
                                    <path d="M25.3969415,38.4228218 C35.2656235,34.3499431 60.5501995,36.7992519 60.5501995,36.7992519 C60.5501995,36.7992519 37.6798299,51.674171 34.4607713,64.4949156 C31.0378751,78.1274969 39.6030585,116.159229 39.6030585,116.159229 C39.6030585,116.159229 27.0067286,111.786345 18.3712182,100.546872 C16.5553407,98.1834328 14.4265429,95.516368 13.1695479,92.5224911 C5.93484043,75.2910596 1.67420213,61.0978151 1.67420213,61.0978151 C1.67420213,61.0978151 15.640291,42.4494642 25.3969415,38.4228218 L25.3969415,38.4228218 Z" id="Path-56" fill="#B1ADAD"></path>
                                    <ellipse id="Oval-2" fill="#544F4F" cx="32.6595745" cy="89.0644068" rx="4.59574468" ry="9.21355932"></ellipse>
                                    <ellipse id="Oval-3" fill="#544F4F" cx="84.2340426" cy="89.0644068" rx="4.59574468" ry="9.21355932"></ellipse>
                                    <path d="M1,58.5714851 C1.36815794,63.5633019 3.80198831,71.8510221 4.83876333,74.7322041 C7.68368426,82.6381961 14.8021941,94.9888374 14.8021941,94.9888374 C14.8021941,94.9888374 10.7170879,75.6879509 12.7596411,64.494916 C14.8021943,53.301881 21.4325133,43.7464115 21.4325133,43.7464115 C21.4325133,43.7464115 44.0571823,36.7092764 56.9517967,36.7092764 C65.8294645,36.7092764 91.9977004,42.1370679 107.963765,44.1972928 C115.188053,45.1294987 120.992021,43.6854277 120.992021,43.6854277 C120.992021,43.6854277 118.401579,38.2349049 116.085081,36.0215079 C113.670196,33.7141025 106.797872,30.1230204 106.797872,30.1230204 L118.89262,23.1168763 C118.89262,23.1168763 114.616025,18.6040725 109.063831,15.415917 C103.511637,12.2277616 92.4371676,12.6516486 92.4371676,12.6516486 L100.200465,0.41189089 C100.200465,0.41189089 81.2797122,-0.759557794 61.9993351,3.07118644 C47.0507561,6.04126231 32.0141948,13.6105777 24.5980718,16.9515095 C9.1814225,23.8966445 3.00664894,44.1972921 3.00664894,44.1972921 C3.00664894,44.1972921 0.472675609,51.4215464 1,58.5714851 L1,58.5714851 Z" id="Path-54" fill="#818181"></path>
                                    <path d="M91.337234,40.6213537 C91.337234,40.6213537 100.691657,57.4454032 101.595744,67.5661007 C102.338465,75.8804055 101.336685,96.0553059 101.336685,96.0553059 C101.336685,96.0553059 103.744986,92.3378796 105.626745,87.6427844 C106.875031,84.528241 107.569105,80.9494045 108.340426,77.8632597 C109.501237,73.2187157 110.938613,65.2486849 110.696477,58.0906108 C110.415362,49.7802604 108.340426,42.5432446 108.340426,42.5432446 L91.337234,40.6213537 L91.337234,40.6213537 Z" id="Path-55" fill="#818181"></path>
                                    <path d="M97.5774392,53.2508934 C96.0470302,49.7618172 91.9674202,41.8569121 91.9674202,41.8569121 C91.9674202,41.8569121 97.7900315,43.2984181 100.478008,43.6904264 C103.150736,44.080211 108.049535,44.2022908 108.049535,44.2022908 C108.049535,44.2022908 106.699798,52.0295504 105.496343,56.7399695 C104.522937,60.54996 101.008311,64.6448755 101.008311,64.6448755 C101.008311,64.6448755 99.1078481,56.7399697 97.5774392,53.2508934 L97.5774392,53.2508934 Z" id="Path-57" fill="#544F4F"></path>
                                    <path d="M118.822806,23.3618114 C118.822806,23.3618114 110.224857,22.5957289 103.12766,23.3618114 C96.0304618,24.127894 92.6007314,27.7826404 92.6007314,27.7826404 C92.6007314,27.7826404 100.351685,28.3816604 103.12766,28.8653535 C105.127284,29.2137733 106.927527,30.2789791 106.927527,30.2789791 L118.822806,23.3618114 L118.822806,23.3618114 Z" id="Path-58" fill="#544F4F"></path>
                                    <path d="M99.8304521,0.477873411 C99.8304521,0.477873411 88.3197591,3.50855526 82.7021277,6.43129635 C78.879267,8.42025415 71.5089761,15.2129701 71.5089761,15.2129701 C71.5089761,15.2129701 81.4396669,13.1016227 85.6697141,12.5666711 C88.4147334,12.219523 92.4341755,12.5666711 92.4341755,12.5666711 L99.8304521,0.477873411 L99.8304521,0.477873411 Z" id="Path-59" fill="#544F4F"></path>
                                    <path d="M6.67354004,35.5188189 C9.62753917,29.8392388 14.5763025,22.5937974 19.0299202,20.1296676 C22.4545985,18.2348369 30.0499706,13.6009022 39.1442819,10.2372881 C48.2385933,6.87367411 60.5352394,3.19915254 60.5352394,3.19915254 C60.5352394,3.19915254 44.0985307,15.1448893 36.8115042,23.5457627 C33.2474668,27.6545755 28.4926862,41.7519399 28.4926862,41.7519399 L21.8952793,44.0073424 C21.8952793,44.0073424 18.4950675,48.0681177 16.1504217,53.5730411 C14.1509009,58.2676561 12.6869561,63.6402959 12.2340422,67.4331369 C11.1412494,76.5845225 15.1215928,95.9803247 15.1215928,95.9803247 C15.1215928,95.9803247 4.25130796,79.3224862 2.0212766,64.4949153 C1.55827086,61.4163709 0.498757513,57.370289 0.907916649,53.5288905 C1.14114074,51.3392617 1.53661912,49.2434926 1.93097613,47.5054601 C2.54096518,44.8170817 3.65890957,42.9846133 3.65890957,42.9846133 C3.65890957,42.9846133 4.51449773,39.6699555 6.67354004,35.5188189 L6.67354004,35.5188189 Z" id="Path-60" fill="#544F4F"></path>
                                </g>
                            </g>
                        </g>
                    </g>
                </g>
            </g>
        </g>
    </g>
</svg>